{"glyphs":{"0":{"ha":917,"x_min":0,"x_max":0,"o":"m 429 -14 b 883 488 654 -14 838 129 l 889 529 b 526 1028 932 865 761 1028 b 69 551 310 1028 115 885 l 65 522 b 429 -14 14 151 182 -14 z m 440 111 b 199 519 272 111 158 231 l 201 547 b 517 904 239 804 368 904 b 754 531 676 904 788 803 l 750 497 b 440 111 717 213 593 111 z "},"1":{"ha":517,"x_min":0,"x_max":0,"o":"m 510 1014 l 381 1014 b 97 775 350 849 257 775 l 89 775 l 69 639 l 86 639 b 365 922 232 639 324 747 l 236 0 l 368 0 z "},"2":{"ha":772,"x_min":0,"x_max":0,"o":"m -25 0 l 689 0 l 706 125 l 26 125 b 793 704 597 390 763 500 b 446 1028 821 890 689 1028 b 74 789 228 1028 97 915 b 321 528 43 622 147 528 b 510 594 401 528 469 556 l 496 610 b 354 560 461 581 413 560 b 196 742 247 560 175 618 b 436 913 213 840 292 913 b 657 694 593 913 676 825 b -8 124 635 535 483 435 z "},"3":{"ha":783,"x_min":0,"x_max":0,"o":"m 338 -15 b 740 249 568 -15 718 86 b 465 522 764 418 658 504 b 786 746 657 539 767 611 b 442 1026 810 901 692 1026 b 83 819 217 1026 101 933 b 339 615 60 683 168 617 l 340 636 b 194 771 228 636 179 688 b 426 911 207 849 279 911 b 654 711 597 911 671 822 b 357 533 636 576 497 533 l 219 533 l 215 508 l 374 508 b 624 299 533 508 642 433 b 350 108 607 192 524 108 b 124 290 181 108 107 193 b 319 408 139 360 193 399 l 318 429 b 7 236 139 421 28 343 b 338 -15 -19 90 97 -15 z "},"4":{"ha":822,"x_min":0,"x_max":0,"o":"m -4 278 l -7 257 l 525 257 l 490 0 l 617 0 l 653 257 l 786 257 l 789 281 l 656 281 l 697 572 l 569 572 l 529 281 l 143 281 l 754 1004 l 756 1014 l 617 1014 z "},"5":{"ha":799,"x_min":0,"x_max":0,"o":"m 322 -14 b 761 325 565 -14 732 126 b 458 640 789 524 654 640 b 178 513 325 640 232 586 l 253 892 l 817 892 l 833 1014 l 156 1014 l 51 482 l 168 463 b 435 610 219 554 306 610 b 642 367 581 610 661 511 b 344 108 619 203 508 108 b 122 288 182 108 103 185 b 310 406 133 349 185 394 l 308 426 b 17 233 142 413 36 338 b 322 -14 -11 88 104 -14 z "},"6":{"ha":854,"x_min":0,"x_max":0,"o":"m 811 311 b 504 640 839 508 721 640 b 169 414 343 640 207 557 b 176 506 169 446 172 475 b 558 907 211 767 356 907 b 765 746 731 907 786 826 b 651 663 756 703 722 676 l 656 642 b 864 796 775 663 847 715 b 576 1028 886 907 815 1028 b 54 511 281 1028 100 829 b 421 -14 13 186 153 -14 b 811 311 636 -14 786 128 z m 183 333 b 475 610 181 510 325 610 b 693 344 642 610 717 503 b 429 110 671 201 574 110 b 183 333 282 110 186 201 z "},"7":{"ha":776,"x_min":0,"x_max":0,"o":"m 126 0 l 269 0 l 818 900 l 835 1014 l 119 1014 l 103 892 l 683 892 z "},"8":{"ha":851,"x_min":0,"x_max":0,"o":"m 25 274 b 390 -14 1 113 135 -14 b 807 261 636 -14 783 94 b 532 528 828 408 726 514 b 838 751 694 542 818 610 b 513 1028 858 907 731 1028 b 128 781 297 1028 149 938 b 376 529 107 628 217 544 b 25 274 172 515 46 421 z m 710 715 b 454 538 692 594 579 538 b 243 738 322 538 226 615 b 494 915 260 850 344 915 b 710 715 649 915 726 828 z m 688 306 b 406 104 669 181 579 104 b 158 319 232 104 140 203 b 447 519 178 460 307 519 b 688 306 586 519 708 449 z "},"9":{"ha":854,"x_min":0,"x_max":0,"o":"m 826 500 b 463 1028 874 857 713 1028 b 67 719 244 1028 92 901 b 383 388 39 522 164 388 b 713 599 539 388 669 460 b 706 513 713 569 710 542 b 344 107 671 260 560 107 b 138 269 186 107 117 179 b 261 361 149 314 183 346 l 257 379 b 38 218 129 360 53 293 b 333 -14 14 100 94 -14 b 826 500 626 -14 785 181 z m 704 686 b 411 415 707 525 572 415 b 189 682 254 415 167 531 b 454 907 211 831 317 907 b 704 686 606 907 701 825 z "}," ":{"ha":300,"x_min":0,"x_max":0,"o":""},"A":{"ha":969,"x_min":0,"x_max":0,"o":"m -44 0 l 99 0 l 253 283 l 699 283 l 767 0 l 904 0 l 650 1014 l 515 1014 z m 479 699 l 561 851 l 597 699 l 692 308 l 265 308 z "},"B":{"ha":943,"x_min":0,"x_max":0,"o":"m 24 0 l 483 0 b 889 253 725 0 865 88 b 576 514 914 428 801 506 b 931 746 781 525 910 597 b 621 1014 951 896 869 1014 l 165 1014 z m 576 892 b 796 704 756 892 810 811 b 519 526 781 594 689 526 l 232 526 l 283 892 z m 522 501 b 761 310 714 501 778 432 b 463 126 744 194 668 126 l 176 126 l 229 501 z "},"C":{"ha":1024,"x_min":0,"x_max":0,"o":"m 735 493 b 1007 718 892 515 990 607 b 643 1028 1033 890 914 1028 b 65 563 326 1028 100 817 b 533 -14 19 239 188 -14 b 1026 478 783 -14 967 144 l 1007 481 b 575 113 951 221 779 113 b 196 547 285 113 163 310 b 626 903 224 739 383 903 b 910 664 856 903 931 789 b 731 511 897 589 850 538 z "},"D":{"ha":999,"x_min":0,"x_max":0,"o":"m 165 1014 l 24 0 l 404 0 b 961 464 739 0 925 204 b 507 1014 1007 793 836 1014 z m 494 890 b 829 481 753 890 863 718 b 406 128 801 283 667 128 l 175 128 l 283 890 z "},"E":{"ha":840,"x_min":0,"x_max":0,"o":"m 24 0 l 746 0 l 763 128 l 175 128 l 228 500 l 706 500 l 710 526 l 232 526 l 283 890 l 867 890 l 885 1014 l 165 1014 z "},"F":{"ha":806,"x_min":0,"x_max":0,"o":"m 24 0 l 158 0 l 226 489 l 713 489 l 717 515 l 231 515 l 283 890 l 839 890 l 856 1014 l 165 1014 z "},"G":{"ha":1075,"x_min":0,"x_max":0,"o":"m 888 376 l 833 0 l 968 0 l 1038 500 l 811 500 b 1044 725 950 529 1029 621 b 660 1028 1068 888 956 1028 b 61 538 322 1028 101 822 b 464 -14 17 231 171 -14 b 888 376 715 -14 838 158 z m 532 501 l 529 475 l 900 475 l 899 464 b 508 111 861 264 731 111 b 193 528 256 111 163 315 b 644 903 225 746 381 903 b 946 668 883 903 964 786 b 678 501 931 553 843 501 z "},"H":{"ha":963,"x_min":0,"x_max":0,"o":"m 24 0 l 158 0 l 229 500 l 765 500 l 696 0 l 831 0 l 972 1014 l 838 1014 l 769 525 l 232 525 l 300 1014 l 165 1014 z "},"I":{"ha":294,"x_min":0,"x_max":0,"o":"m 26 0 l 161 0 l 303 1014 l 168 1014 z "},"J":{"ha":729,"x_min":0,"x_max":0,"o":"m 382 433 b 263 451 349 444 314 451 b 8 263 122 451 24 374 b 304 -14 -15 96 104 -14 b 656 317 510 -14 628 115 l 753 1014 l 618 1014 l 521 329 b 307 113 501 189 432 113 b 129 300 192 113 113 183 b 292 428 140 385 200 428 b 375 414 319 428 349 424 z "},"K":{"ha":900,"x_min":0,"x_max":0,"o":"m 165 1014 l 24 0 l 158 0 l 229 504 l 403 504 l 699 0 l 847 0 l 538 513 l 967 1014 l 813 1014 l 401 528 l 232 528 l 300 1014 z "},"L":{"ha":782,"x_min":0,"x_max":0,"o":"m 24 0 l 699 0 l 717 128 l 176 128 l 300 1014 l 165 1014 z "},"M":{"ha":1104,"x_min":0,"x_max":0,"o":"m 165 1014 l 24 0 l 158 0 l 250 656 l 289 950 l 347 657 l 485 0 l 514 0 l 835 657 l 972 942 l 931 656 l 839 0 l 974 0 l 1115 1014 l 976 1014 l 619 282 l 506 40 l 457 282 l 306 1014 z "},"N":{"ha":963,"x_min":0,"x_max":0,"o":"m 165 1014 l 24 0 l 157 0 l 257 711 l 290 961 l 379 746 l 699 0 l 831 0 l 972 1014 l 838 1014 l 736 285 l 706 56 l 628 249 l 299 1014 z "},"O":{"ha":1088,"x_min":0,"x_max":0,"o":"m 540 -14 b 1051 451 835 -14 1017 197 b 590 1028 1099 785 918 1028 b 71 563 297 1028 106 815 b 540 -14 25 239 188 -14 z m 546 113 b 203 547 278 113 169 310 b 586 903 229 738 365 903 b 921 468 839 903 953 706 b 546 113 893 275 767 113 z "},"P":{"ha":883,"x_min":0,"x_max":0,"o":"m 393 349 b 885 664 647 349 854 436 b 503 1014 911 867 788 1014 l 167 1014 l 24 0 l 158 0 l 208 349 z m 472 890 b 751 618 690 890 776 792 b 390 375 729 456 615 375 l 211 375 l 283 890 z "},"Q":{"ha":1089,"x_min":0,"x_max":0,"o":"m 976 4 l 883 115 b 1050 450 975 199 1033 318 b 592 1028 1094 779 917 1028 b 69 563 297 1028 106 815 b 533 -14 25 239 188 -14 b 861 96 667 -14 776 28 l 953 -14 z m 201 547 b 586 903 229 738 365 903 b 919 467 840 903 951 700 b 801 213 906 368 867 278 l 692 344 l 669 325 l 779 193 b 544 113 719 142 642 113 b 201 547 278 113 168 310 z "},"R":{"ha":933,"x_min":0,"x_max":0,"o":"m 165 1014 l 24 0 l 158 0 l 221 442 l 433 442 b 682 210 615 442 657 399 l 708 0 l 853 0 l 828 189 b 707 418 811 324 782 385 b 556 451 669 438 619 447 b 938 717 763 464 913 550 b 604 1014 963 886 854 1014 z m 560 892 b 806 667 751 892 824 797 b 494 467 786 536 678 467 l 224 467 l 283 892 z "},"S":{"ha":878,"x_min":0,"x_max":0,"o":"m 282 404 l 278 425 b 0 214 96 393 14 308 b 343 -15 -21 75 82 -15 b 831 265 626 -15 810 99 b 449 529 849 421 733 486 b 196 722 224 563 182 624 b 569 906 210 824 340 906 b 832 751 783 906 847 833 b 644 635 821 690 749 657 l 649 614 b 897 806 819 649 883 717 b 571 1032 917 935 819 1032 b 85 771 290 1032 107 926 b 444 507 64 615 168 549 b 725 317 697 468 738 414 b 350 113 710 207 589 113 b 68 272 135 113 51 178 b 282 404 78 328 144 376 z "},"T":{"ha":843,"x_min":0,"x_max":0,"o":"m 99 892 l 425 892 l 300 0 l 435 0 l 560 892 l 885 892 l 901 1014 l 117 1014 z "},"U":{"ha":938,"x_min":0,"x_max":0,"o":"m 825 1014 l 740 415 b 439 113 713 213 615 113 b 207 422 263 113 178 218 l 289 1014 l 154 1014 l 71 421 b 428 -14 31 125 181 -14 b 875 413 682 -14 835 128 l 960 1014 z "},"V":{"ha":954,"x_min":0,"x_max":0,"o":"m 1028 1014 l 882 1014 l 581 447 l 438 176 l 375 447 l 240 1014 l 100 1014 l 346 0 l 482 0 z "},"W":{"ha":1146,"x_min":0,"x_max":0,"o":"m 106 1014 l 165 0 l 311 0 l 629 903 l 649 964 l 651 903 l 717 0 l 863 0 l 1214 1014 l 1072 1014 l 743 47 l 742 43 l 740 54 l 671 1014 l 640 1014 l 303 54 l 299 43 l 299 47 l 247 1014 z "},"X":{"ha":904,"x_min":0,"x_max":0,"o":"m -46 0 l 115 0 l 465 426 l 696 0 l 844 0 l 556 518 l 967 1014 l 808 1014 l 489 622 l 489 621 l 488 622 l 269 1014 l 124 1014 l 397 531 z "},"Y":{"ha":872,"x_min":0,"x_max":0,"o":"m 90 1014 l 367 369 l 315 0 l 451 0 l 501 360 l 963 1014 l 810 1014 l 453 500 l 236 1014 z "},"Z":{"ha":811,"x_min":0,"x_max":0,"o":"m -7 122 l -24 0 l 724 0 l 740 126 l 39 126 l 51 138 l 850 896 l 867 1014 l 124 1014 l 107 892 l 804 892 l 796 883 z "},"a":{"ha":864,"x_min":0,"x_max":0,"o":"m 88 589 b 354 399 75 493 113 399 b 400 400 368 399 385 399 b 158 338 288 378 226 365 b 18 176 78 303 31 254 b 235 -17 3 72 74 -17 b 600 267 418 -17 528 89 b 582 169 593 240 588 210 b 663 -14 560 46 583 -14 b 883 338 769 -14 831 125 l 863 338 b 750 108 824 188 792 108 b 722 243 715 108 704 133 l 767 510 b 449 793 797 693 696 793 b 88 589 228 793 101 699 z m 643 536 b 522 435 635 475 575 449 b 374 417 476 422 422 417 b 203 533 210 415 197 481 b 442 678 211 608 297 678 b 643 536 608 678 653 615 z m 158 238 b 251 342 165 289 197 318 b 514 411 322 371 394 379 b 638 482 563 424 615 443 l 619 372 b 322 96 568 186 472 96 b 158 238 203 96 149 158 z "},"b":{"ha":918,"x_min":0,"x_max":0,"o":"m 871 356 b 550 792 907 615 761 792 b 224 542 375 792 278 681 l 240 619 l 306 1082 l 172 1082 l 19 0 l 154 0 l 181 188 l 186 278 b 486 -14 200 113 278 -14 b 871 356 693 -14 842 139 z m 740 364 b 454 107 718 213 615 107 b 200 417 265 107 175 236 b 488 672 222 568 325 672 b 740 364 676 672 765 535 z "},"c":{"ha":806,"x_min":0,"x_max":0,"o":"m 558 385 b 772 556 674 403 757 460 b 492 793 794 685 699 793 b 40 418 238 793 68 625 b 400 -14 4 163 143 -14 b 826 415 643 -14 781 172 l 807 418 b 453 101 764 224 646 101 b 169 408 240 101 146 242 b 471 671 192 558 306 671 b 671 497 629 671 692 593 b 554 401 661 447 628 419 z "},"d":{"ha":943,"x_min":0,"x_max":0,"o":"m 40 422 b 354 -14 4 163 149 -14 b 675 257 535 -14 624 97 l 669 224 b 664 189 668 213 665 201 b 747 -14 636 33 675 -14 b 963 338 850 -14 911 126 l 942 338 b 829 108 903 188 872 108 b 804 246 793 108 789 138 l 922 1082 l 788 1082 l 714 568 l 707 496 b 422 793 699 672 624 793 b 40 422 217 793 68 632 z m 415 108 b 171 415 233 108 147 246 b 450 671 192 564 290 671 b 694 369 636 671 718 539 b 415 108 672 218 572 108 z "},"e":{"ha":813,"x_min":0,"x_max":0,"o":"m 810 404 b 454 100 768 219 651 100 b 169 408 232 100 146 243 b 453 347 239 371 346 349 b 792 543 636 349 772 403 b 494 793 810 669 722 793 b 40 418 235 793 68 624 b 406 -14 4 165 132 -14 b 828 401 643 -14 783 164 z m 472 671 b 668 499 626 671 688 592 b 447 374 651 408 571 374 b 174 433 353 374 244 394 b 472 671 204 571 311 671 z "},"f":{"ha":525,"x_min":0,"x_max":0,"o":"m 117 0 l 246 0 l 338 658 l 535 658 l 550 778 l 354 778 l 363 836 b 494 963 376 940 404 963 l 576 963 l 593 1082 l 511 1082 b 233 832 328 1082 261 1025 l 226 778 l 69 778 l 53 658 l 210 658 z "},"g":{"ha":889,"x_min":0,"x_max":0,"o":"m 40 422 b 322 -6 6 176 135 13 b 11 -162 121 -15 25 -85 b 308 -343 -7 -261 68 -343 b 776 57 588 -343 740 -199 l 876 778 l 743 778 l 715 579 l 708 496 b 422 793 700 674 625 793 b 40 422 217 793 68 632 z m 415 108 b 171 415 233 108 147 246 b 450 671 192 564 290 671 b 694 369 638 671 718 539 b 415 108 672 218 572 108 z m 661 190 l 644 74 b 318 -225 615 -136 507 -225 b 140 -108 183 -225 131 -172 b 392 -6 149 -60 211 -26 b 672 246 544 7 624 104 z "},"h":{"ha":843,"x_min":0,"x_max":0,"o":"m 863 338 l 842 338 b 731 108 803 188 771 108 b 703 242 696 108 683 133 l 743 469 b 532 793 779 668 706 793 b 217 501 396 793 282 692 l 300 1082 l 165 1082 l 13 0 l 147 0 l 206 426 b 454 674 261 594 342 674 b 606 415 583 674 638 592 l 567 193 b 647 -14 539 40 563 -14 b 863 338 749 -14 813 131 z "},"i":{"ha":317,"x_min":0,"x_max":0,"o":"m 313 885 l 94 885 l 93 863 l 311 863 z m 257 778 l 122 778 l 39 192 b 119 -14 17 40 43 -14 b 336 338 224 -14 286 133 l 315 338 b 204 108 276 188 244 108 b 181 244 174 108 165 136 z "},"j":{"ha":276,"x_min":0,"x_max":0,"o":"m 319 885 l 101 885 l 99 863 l 317 863 z m 15 -4 b -135 -214 -8 -171 -51 -214 b -214 -140 -190 -214 -224 -186 b -49 -74 -206 -103 -160 -78 l -47 -54 b -322 -185 -207 -57 -304 -108 b -143 -329 -340 -268 -279 -329 b 149 -14 36 -329 114 -237 l 260 778 l 126 778 z "},"k":{"ha":781,"x_min":0,"x_max":0,"o":"m 667 106 b 601 215 638 106 628 129 b 415 360 569 318 519 351 b 760 571 608 376 740 446 b 557 793 779 690 699 793 b 221 515 413 793 285 696 l 300 1082 l 165 1082 l 13 0 l 147 0 l 196 346 b 272 350 214 347 246 350 b 469 181 394 350 443 326 b 593 -14 499 28 524 -14 b 800 338 664 -14 731 58 l 779 338 b 667 106 729 146 696 106 z m 483 683 b 621 525 583 683 636 615 b 326 371 604 431 503 371 l 199 371 l 203 394 b 483 683 229 582 360 683 z "},"l":{"ha":322,"x_min":0,"x_max":0,"o":"m 300 1082 l 165 1082 l 40 193 b 122 -14 18 42 44 -14 b 342 338 229 -14 292 129 l 321 338 b 207 107 282 188 247 107 b 182 244 176 107 167 136 z "},"m":{"ha":1335,"x_min":0,"x_max":0,"o":"m 1354 338 l 1333 338 b 1221 108 1294 188 1261 108 b 1194 242 1189 108 1175 133 l 1235 469 b 1026 793 1271 668 1199 793 b 735 519 890 793 797 696 b 529 793 751 692 668 793 b 215 493 389 793 278 683 l 256 778 l 121 778 l 13 0 l 147 0 l 206 426 b 449 674 263 600 349 674 b 594 425 571 674 618 589 l 536 0 l 665 0 l 728 447 b 946 674 772 593 843 674 b 1097 415 1075 674 1129 592 l 1058 193 b 1138 -14 1031 40 1054 -14 b 1354 338 1240 -14 1304 131 z "},"n":{"ha":843,"x_min":0,"x_max":0,"o":"m 256 778 l 121 778 l 13 0 l 147 0 l 206 426 b 457 674 261 594 343 674 b 606 415 583 674 638 592 l 567 193 b 647 -14 539 40 565 -14 b 863 338 750 -14 814 136 l 842 338 b 729 107 803 188 771 107 b 703 242 697 107 683 133 l 743 469 b 532 793 779 668 704 793 b 217 501 396 793 282 692 z "},"o":{"ha":879,"x_min":0,"x_max":0,"o":"m 413 -14 b 831 354 657 -14 803 150 b 467 793 867 600 729 793 b 46 422 232 793 75 628 b 413 -14 11 172 151 -14 z m 421 107 b 176 413 246 107 151 239 b 458 672 199 564 300 672 b 700 363 646 672 724 533 b 421 107 678 215 582 107 z "},"p":{"ha":918,"x_min":0,"x_max":0,"o":"m -22 -300 l 113 -300 l 181 189 l 188 282 b 486 -15 200 115 276 -15 b 871 356 693 -14 842 139 b 550 792 907 615 761 792 b 224 540 375 792 278 681 l 239 614 l 263 778 l 129 778 z m 456 107 b 201 417 265 107 176 236 b 488 672 222 568 326 672 b 740 364 676 672 765 535 b 456 107 718 213 617 107 z "},"q":{"ha":918,"x_min":0,"x_max":0,"o":"m 47 433 b 367 -12 11 181 144 -12 b 693 240 533 -12 635 82 l 681 179 l 613 -300 l 747 -300 l 899 778 l 765 778 l 738 572 l 732 507 b 442 793 717 675 619 793 b 47 433 228 793 76 643 z m 718 369 b 431 107 696 213 589 107 b 178 424 242 107 153 249 b 467 672 199 572 299 672 b 718 369 649 672 743 544 z "},"r":{"ha":658,"x_min":0,"x_max":0,"o":"m 375 389 b 667 590 553 399 651 476 b 490 790 683 701 615 790 b 219 526 347 790 265 696 l 254 778 l 121 778 l 13 0 l 147 0 l 210 456 b 419 676 250 611 326 676 b 547 533 515 676 558 619 b 374 408 536 453 467 417 z "},"s":{"ha":764,"x_min":0,"x_max":0,"o":"m 565 450 b 760 603 688 476 746 525 b 494 797 781 717 713 797 b 67 588 225 797 83 706 b 385 385 49 474 125 415 b 603 258 579 360 613 328 b 293 111 592 178 475 111 b 64 226 114 111 53 163 b 217 321 71 267 113 301 l 213 342 b 3 188 81 315 15 257 b 289 -15 -18 64 60 -15 b 704 203 546 -15 688 82 b 386 404 722 325 638 375 b 174 539 196 426 164 472 b 483 672 186 615 294 672 b 701 561 650 672 714 624 b 560 469 693 519 647 489 z "},"t":{"ha":506,"x_min":0,"x_max":0,"o":"m 64 778 l 47 657 l 194 657 l 133 240 b 219 -14 106 53 135 -14 b 489 428 335 -14 418 153 l 467 429 b 301 107 413 221 354 107 b 265 283 261 107 246 150 l 319 657 l 510 657 l 526 778 l 336 778 l 371 1014 l 247 1014 l 213 778 z "},"u":{"ha":829,"x_min":0,"x_max":0,"o":"m 764 778 l 629 778 l 571 361 b 338 99 536 201 450 99 b 190 368 204 99 167 190 l 249 778 l 119 778 l 53 308 b 260 -15 25 103 86 -15 b 556 254 388 -15 496 83 l 547 193 b 629 -14 524 33 547 -14 b 849 338 733 -14 794 119 l 828 338 b 715 108 789 188 757 108 b 690 253 678 108 674 140 z "},"v":{"ha":790,"x_min":0,"x_max":0,"o":"m 394 0 l 842 778 l 703 778 l 357 169 l 347 150 l 343 171 l 196 778 l 61 778 l 257 0 z "},"w":{"ha":1032,"x_min":0,"x_max":0,"o":"m 469 501 l 556 721 l 579 501 l 638 0 l 774 0 l 1060 778 l 921 778 l 738 268 l 658 43 l 633 269 l 575 764 l 547 764 l 347 268 l 260 40 l 246 268 l 213 778 l 78 778 l 138 0 l 268 0 z "},"x":{"ha":793,"x_min":0,"x_max":0,"o":"m -51 0 l 111 0 l 389 308 l 585 0 l 739 0 l 481 400 l 826 778 l 667 778 l 413 496 l 236 778 l 85 778 l 321 407 z "},"y":{"ha":781,"x_min":0,"x_max":0,"o":"m 664 57 l 765 778 l 632 778 l 574 361 b 336 99 538 201 453 99 b 190 364 203 99 165 182 l 249 778 l 119 778 l 53 308 b 233 -14 26 115 79 -3 b -40 -161 63 -32 -26 -89 b 235 -343 -61 -267 17 -343 b 664 57 499 -343 628 -199 z m 83 -118 b 281 -14 92 -68 151 -36 b 560 267 401 -3 504 96 l 532 74 b 244 -225 503 -136 419 -225 b 83 -118 124 -225 74 -181 z "},"z":{"ha":728,"x_min":0,"x_max":0,"o":"m 1 129 l -17 0 l 633 0 l 651 129 l 43 129 l 718 650 l 735 778 l 103 778 l 86 650 l 678 650 z "},".":{"ha":289,"x_min":0,"x_max":0,"o":"m 100 -10 b 204 81 157 -10 197 26 b 110 193 214 143 174 193 b 3 101 50 193 10 154 b 100 -10 -7 32 39 -10 z "}}}
